<?xml version="1.0" standalone="no"?>
<!DOCTYPE svg PUBLIC "-//W3C//DTD SVG 20010904//EN"
 "http://www.w3.org/TR/2001/REC-SVG-20010904/DTD/svg10.dtd">
<svg version="1.0" xmlns="http://www.w3.org/2000/svg"
 width="768.000000pt" height="768.000000pt" viewBox="0 0 768.000000 768.000000"
 preserveAspectRatio="xMidYMid meet">
<metadata>
Created by potrace 1.14, written by Peter Selinger 2001-2017
</metadata>
<g transform="translate(0.000000,768.000000) scale(0.100000,-0.100000)"
fill="#000000" stroke="none">
<path d="M3958 6795 c-2 -2 -34 -6 -73 -9 -80 -7 -147 -15 -190 -23 -16 -2
-39 -6 -50 -7 -24 -4 -102 -17 -130 -22 -11 -3 -35 -7 -53 -10 -18 -3 -86 -19
-150 -35 -64 -16 -127 -32 -140 -35 -43 -9 -286 -92 -382 -129 -310 -122 -682
-339 -885 -516 -149 -129 -206 -186 -305 -299 -36 -41 -67 -77 -70 -80 -3 -3
-18 -23 -35 -45 -16 -22 -32 -42 -35 -45 -4 -3 -21 -27 -40 -55 -19 -27 -37
-52 -41 -55 -4 -3 -11 -19 -14 -35 -10 -38 1 -28 53 48 110 162 297 338 505
475 26 18 51 32 54 32 4 0 14 6 22 14 26 22 140 81 252 131 57 25 118 52 134
60 34 15 240 85 268 90 10 2 27 7 37 10 10 3 27 8 37 10 10 3 38 9 63 15 25 6
60 13 79 16 18 2 37 6 41 9 7 5 40 11 105 19 61 9 111 17 133 22 100 21 660
21 774 -1 12 -3 46 -7 77 -10 31 -3 67 -7 81 -10 14 -3 45 -8 70 -11 25 -3 64
-9 86 -13 63 -12 64 -12 312 237 164 164 197 206 166 207 -8 1 -55 10 -104 22
-8 2 -33 5 -55 8 -22 3 -67 9 -100 14 -54 8 -490 13 -497 6z"/>
<path d="M427 5073 c-1 -1 -29 -2 -62 -4 -141 -6 -240 -57 -286 -146 -41 -78
-48 -152 -45 -433 3 -280 5 -301 37 -367 44 -91 131 -145 257 -158 30 -3 194
-6 287 -5 11 0 54 0 95 1 276 0 380 72 392 269 l3 45 -45 5 c-25 3 -80 4 -122
2 -75 -3 -77 -4 -87 -34 -11 -31 -42 -59 -71 -66 -8 -2 -105 -4 -215 -5 -172
0 -205 2 -237 17 -55 26 -61 56 -61 296 0 265 1 281 32 319 35 42 74 47 309
46 184 -1 193 -2 216 -24 13 -12 26 -35 30 -51 l5 -30 118 3 118 2 -3 63 c-7
150 -84 227 -247 247 -44 6 -414 13 -418 8z"/>
<path d="M4350 5068 c-179 -16 -268 -87 -304 -242 -18 -74 -19 -536 -2 -616
32 -152 121 -228 284 -245 30 -3 196 -6 287 -5 11 0 56 1 100 1 269 0 375 76
379 274 1 22 -2 41 -6 43 -5 1 -57 2 -117 2 l-109 0 -15 -39 c-23 -57 -48 -64
-260 -65 -243 -2 -288 10 -305 82 -3 15 -6 133 -7 262 0 347 -13 334 302 334
199 1 214 -1 240 -20 15 -11 31 -35 35 -53 l9 -32 117 3 117 3 -1 30 c-5 159
-63 239 -197 270 -73 17 -416 25 -547 13z"/>
<path d="M5534 5068 c-149 -11 -233 -61 -280 -163 -33 -71 -38 -132 -37 -410
1 -249 5 -300 29 -349 8 -16 14 -34 14 -40 1 -14 49 -67 81 -87 75 -49 156
-60 444 -60 305 1 383 14 450 73 70 60 83 109 85 308 3 204 2 217 -17 218 -20
2 -100 2 -111 1 -4 -1 -11 0 -17 1 -10 2 -128 1 -143 -1 -4 -1 -11 0 -17 1
-20 4 -148 -1 -156 -6 -5 -3 -9 -2 -9 3 0 9 -78 9 -86 0 -10 -9 -5 -170 5
-176 5 -4 80 -6 165 -6 100 0 156 -3 157 -10 7 -51 3 -115 -7 -136 -24 -48
-49 -52 -314 -52 -255 0 -282 6 -301 77 -12 40 -16 472 -6 506 3 8 8 25 12 37
4 12 23 30 43 39 31 15 69 18 242 19 113 0 222 -2 244 -6 44 -8 79 -38 81 -71
2 -23 3 -23 121 -23 l119 0 -2 60 c-6 140 -79 220 -224 245 -76 13 -433 18
-565 8z"/>
<path d="M1248 5059 c-6 -4 -9 -46 -9 -100 1 -52 2 -101 2 -109 -1 -8 -1 -62
0 -120 0 -58 0 -112 0 -120 -1 -8 -1 -62 0 -120 0 -58 0 -112 0 -120 -1 -8 -1
-62 0 -120 0 -102 0 -113 -3 -155 0 -11 0 -45 1 -75 l1 -55 107 0 c60 0 110 3
113 7 3 3 5 162 5 352 0 190 2 346 5 346 3 0 23 -33 44 -72 21 -40 54 -95 72
-123 18 -27 38 -62 45 -77 7 -16 16 -28 21 -28 4 0 8 -5 8 -10 0 -6 37 -72 82
-146 l82 -136 18 24 c10 12 22 28 28 35 5 7 10 14 10 17 0 3 46 80 101 173 56
92 122 207 146 256 25 48 48 87 51 87 4 0 7 -158 7 -351 l0 -352 118 -1 c64
-1 118 1 118 4 3 12 5 1076 2 1085 -2 6 -53 10 -128 10 -97 0 -127 -3 -139
-15 -7 -8 -35 -55 -61 -105 -26 -49 -56 -103 -65 -120 -24 -39 -78 -138 -137
-247 -26 -49 -49 -88 -53 -88 -3 0 -24 30 -45 67 -22 37 -45 77 -52 88 -7 11
-18 31 -25 45 -7 14 -15 27 -18 30 -3 3 -11 16 -19 30 -55 97 -175 297 -182
305 -11 11 -234 14 -251 4z"/>
<path d="M2921 5055 c-16 -20 -49 -104 -43 -109 3 -3 0 -6 -6 -6 -7 0 -12 -6
-12 -12 0 -7 -34 -94 -74 -193 -41 -99 -111 -270 -156 -380 -44 -110 -85 -209
-90 -220 -5 -11 -23 -53 -39 -92 -30 -73 -30 -73 -8 -74 42 -1 152 -1 193 0
l42 1 32 83 c18 45 36 86 41 91 4 4 131 9 283 10 l275 1 41 -95 41 -95 121 2
c66 1 123 4 125 7 5 5 -13 57 -42 121 -13 29 -59 142 -147 360 -22 55 -46 114
-53 130 -7 17 -17 41 -23 55 -5 14 -21 52 -35 85 -14 33 -40 96 -57 140 -18
44 -40 98 -50 120 -10 22 -20 49 -24 60 -5 19 -14 20 -167 20 -97 0 -164 -4
-168 -10z m210 -305 c22 -58 44 -114 49 -125 5 -11 29 -74 54 -140 l44 -120
-99 -3 c-54 -1 -143 -1 -198 0 l-98 3 10 25 c5 14 11 30 13 35 1 6 20 57 42
115 143 375 133 353 140 330 2 -8 22 -62 43 -120z"/>
<path d="M6499 5060 c-1 -3 -2 -249 -3 -547 l-1 -543 60 -1 c76 -2 158 1 163
6 2 1 3 162 3 356 l0 353 44 -78 c25 -43 45 -82 45 -86 0 -5 4 -10 8 -12 5 -1
22 -26 38 -54 35 -62 120 -205 175 -293 21 -34 39 -67 39 -72 0 -26 24 -1 62
64 23 39 46 74 50 75 5 2 8 7 8 12 0 9 183 317 200 338 6 6 8 12 5 12 -4 0 3
13 14 29 12 16 21 34 21 40 0 6 4 11 9 11 5 0 8 -150 7 -350 l-1 -350 63 -1
c77 -1 93 -1 137 0 l35 1 -2 547 -3 548 -118 0 -118 0 -34 -60 c-19 -33 -47
-81 -63 -106 -15 -25 -76 -130 -136 -232 -95 -164 -111 -184 -120 -167 -6 10
-53 90 -105 177 -51 87 -102 172 -111 189 -25 43 -112 188 -117 194 -5 6 -253
7 -254 0z"/>
<path d="M6275 3568 c-55 -77 -233 -265 -300 -316 -17 -12 -43 -33 -60 -45
-48 -38 -164 -117 -171 -117 -3 0 -18 -9 -33 -19 -100 -72 -490 -243 -631
-277 -8 -2 -68 -17 -132 -33 -65 -17 -137 -33 -160 -36 -23 -4 -45 -8 -48 -10
-3 -1 -25 -6 -50 -9 -25 -4 -88 -13 -140 -20 -97 -14 -618 -16 -725 -3 -27 4
-75 9 -105 12 -30 3 -62 7 -70 10 -8 2 -35 6 -60 9 -25 3 -56 8 -70 11 -87 17
-96 16 -137 -14 -42 -30 -297 -281 -367 -360 -34 -40 -37 -46 -22 -56 18 -14
148 -41 246 -52 71 -7 500 -8 565 0 22 3 84 10 139 17 54 6 108 14 120 16 11
2 35 6 51 8 45 7 88 15 168 32 39 8 80 17 90 19 10 2 27 7 37 10 10 3 27 8 38
10 148 28 506 158 717 261 151 73 394 216 403 236 2 5 8 8 13 8 9 0 147 99
175 125 6 6 28 24 49 40 44 35 194 174 239 224 17 18 45 48 61 66 47 51 74 84
132 159 29 39 58 76 63 83 6 7 10 15 10 19 0 3 9 17 20 31 11 14 20 30 20 34
0 23 -21 2 -75 -73z"/>
<path d="M7268 1525 c-3 -3 -28 -7 -57 -10 -127 -13 -195 -97 -161 -200 21
-65 83 -95 245 -120 108 -16 146 -38 141 -80 -5 -37 -18 -54 -49 -64 -40 -13
-155 -9 -183 7 -24 13 -54 55 -54 75 0 10 -14 13 -53 12 -68 -1 -78 -8 -67
-44 29 -104 121 -150 288 -147 163 4 244 67 238 188 -4 83 -63 125 -201 144
-158 21 -195 36 -195 78 1 50 47 75 132 72 62 -2 104 -24 118 -61 9 -22 15
-24 70 -24 55 1 60 3 60 23 0 35 -46 92 -92 114 -24 11 -70 23 -102 27 -32 3
-62 8 -66 10 -4 2 -9 2 -12 0z"/>
<path d="M103 1512 c-26 -4 -24 28 -24 -320 -1 -118 2 -216 5 -219 6 -7 382
-6 411 1 11 2 25 5 30 5 16 2 69 54 84 82 7 15 13 47 14 71 1 52 -30 104 -70
119 l-25 9 31 35 c26 30 31 44 31 85 0 43 -5 55 -32 85 -21 22 -46 37 -68 41
-38 6 -351 11 -387 6z m348 -108 c23 -21 25 -71 2 -96 -14 -16 -33 -18 -140
-18 l-124 0 2 63 c1 34 6 65 11 68 5 3 58 4 119 3 89 -2 115 -6 130 -20z m23
-219 c18 -17 23 -30 20 -60 -5 -65 -27 -75 -176 -75 l-127 0 2 78 1 79 128 0
c118 0 130 -1 152 -22z"/>
<path d="M839 1420 c-1 -312 0 -442 5 -447 3 -3 111 -6 241 -7 l235 -1 0 42 0
42 -127 0 c-71 0 -151 0 -180 0 l-51 1 -1 78 -1 79 143 0 c217 2 195 -3 192
41 l-2 37 -165 3 -165 2 -2 70 -1 70 37 1 c21 0 100 0 176 0 98 0 137 4 138
12 0 7 2 24 3 40 l2 27 -86 1 c-47 0 -154 1 -237 2 l-153 2 -1 -95z"/>
<path d="M1525 1510 c-30 -4 -40 -9 -39 -22 1 -10 2 -29 3 -41 1 -23 4 -24 79
-22 118 1 111 8 110 -105 0 -55 3 -104 7 -110 3 -5 3 -10 -2 -10 -8 0 -8 -218
-1 -226 7 -7 98 -7 105 -1 3 4 6 108 6 232 l-1 225 81 1 c45 1 92 0 103 0 18
-2 22 4 26 38 3 36 1 41 -17 42 -94 4 -428 3 -460 -1z"/>
<path d="M2139 1508 c-2 -10 -2 -54 0 -71 1 -10 23 -13 94 -12 50 0 97 0 102
-2 6 -2 10 -82 9 -216 -1 -116 0 -219 2 -227 3 -10 15 -14 41 -13 21 1 45 2
53 2 14 1 16 31 15 231 0 223 1 230 20 231 11 0 56 1 99 2 l80 2 2 38 c1 35 0
37 -30 37 -268 5 -486 3 -487 -2z"/>
<path d="M2849 1485 c0 -16 -1 -139 -2 -273 l-2 -242 203 -1 c249 -1 250 -1
262 0 6 1 10 19 10 41 l0 39 -179 -2 -180 -2 1 82 1 82 168 -2 c93 -1 170 1
170 6 2 9 2 54 0 66 0 6 -67 10 -158 10 -87 -1 -164 0 -170 0 -9 1 -12 22 -10
73 l2 72 178 -2 177 -2 0 42 0 43 -235 0 -235 0 -1 -30z"/>
<path d="M3559 1512 c-13 -2 -15 -42 -13 -270 1 -147 2 -269 3 -272 0 -3 18
-4 38 -3 21 1 45 2 53 2 13 1 15 18 15 99 0 53 1 102 2 107 4 12 180 13 230 1
38 -9 52 -38 57 -124 5 -70 15 -90 48 -86 13 1 38 3 56 3 29 1 32 3 22 21 -6
11 -12 54 -14 95 -4 75 -21 120 -52 132 -19 7 -18 20 4 27 32 11 62 69 62 122
0 73 -32 115 -105 135 -35 10 -366 19 -406 11z m365 -103 c20 -15 26 -29 26
-57 0 -42 -7 -55 -35 -69 -21 -11 -254 -15 -256 -4 -1 3 -2 39 -3 79 l-1 72
121 0 c108 0 124 -2 148 -21z"/>
<path d="M4647 1506 c-2 -6 11 -58 30 -116 19 -58 36 -112 38 -120 4 -15 88
-293 90 -297 1 -3 104 -6 121 -4 6 0 26 49 44 109 18 59 47 152 64 206 l32 99
13 -44 c8 -24 36 -110 62 -192 27 -81 49 -154 49 -162 0 -14 14 -17 80 -17 69
0 66 -2 94 80 15 42 36 104 46 137 10 33 38 117 62 186 24 69 43 130 41 135
-3 10 -110 11 -120 0 -4 -3 -8 -14 -9 -23 -2 -9 -9 -37 -17 -62 -8 -25 -32
-106 -52 -178 -21 -73 -41 -133 -45 -133 -7 0 -16 23 -25 65 -5 19 -57 180
-85 260 -25 72 -29 79 -54 78 -14 -1 -41 -1 -59 -2 -33 -1 -33 -2 -62 -93 -75
-241 -102 -321 -107 -312 -6 10 -68 225 -99 344 -6 25 -15 48 -18 52 -10 12
-110 15 -114 4z"/>
<path d="M5859 1510 c-23 -6 -34 -28 -126 -239 -15 -36 -51 -117 -79 -180 -29
-64 -50 -118 -49 -119 3 -4 65 -5 111 -3 15 1 26 12 34 34 28 74 42 97 58 98
9 1 65 2 124 3 l107 1 31 -67 c25 -53 36 -68 53 -69 12 0 39 -1 59 -2 34 -2
37 0 31 21 -3 13 -19 51 -34 83 -16 33 -29 61 -29 64 0 5 -18 46 -108 245 -16
36 -35 80 -42 98 -7 17 -20 32 -29 33 -9 0 -33 1 -53 2 -20 1 -47 0 -59 -3z
m107 -215 c19 -49 33 -94 32 -100 -3 -11 -168 -15 -168 -4 0 7 79 198 88 214
3 5 8 2 10 -5 2 -8 19 -55 38 -105z"/>
<path d="M6332 1510 l-34 -5 20 -25 c10 -14 64 -89 119 -166 l99 -142 -1 -91
c-1 -50 2 -95 5 -101 8 -12 75 -19 91 -9 7 4 11 42 10 105 l-1 99 75 105 c42
58 83 116 92 130 10 14 30 42 46 63 l29 37 -36 1 c-20 1 -48 1 -63 2 -23 1
-35 -9 -65 -53 -21 -30 -41 -59 -45 -65 -5 -5 -23 -33 -41 -62 -22 -34 -38
-50 -48 -46 -8 3 -14 9 -14 14 0 9 -32 61 -103 169 -32 48 -49 53 -135 40z"/>
</g>
</svg>
